<?xml version="1.0" encoding="UTF-8"?>
<svg id="Layer_1" data-name="Layer 1" xmlns="http://www.w3.org/2000/svg" viewBox="0 0 536.08 393.59">
  <defs>
    <style>
      .cls-1 {
        fill: #1c75bc;
        stroke: #231f20;
        stroke-miterlimit: 10;
        stroke-width: 2px;
      }
    </style>
  </defs>
  <path class="cls-1" d="M184.46,144.61s7.94,16.92,19.39,26.98c11.45,10.06,45.19,21.52,53.26,17.43,8.08-4.1,43.17-11.73,43.17-11.73l10.76,5.43,2.57-6.03,3.97,1.09c2.64.72,5.32,1.25,8.03,1.57l2.75.33c1.46.18,2.93.28,4.41.31l6.02.11h11.15s9.16,17.38,17.86,24.51c9.87,8.09,22.56,8.93,22.56,8.93,0,0-4.6,9.32-13.97,6.25-9.38-3.07-15.53-8.71-15.53-8.71h0c1.28,5.3,2.32,5.47,6.77,8.62,1.73,1.22,4.94,3.48,7.06,4.95,7.2,5.01,16.11,7.81,16.11,7.81,0,0-19.84,1.35-26.32-5.52-6.48-6.87-5.11-5.54-5.11-5.54l3,8.92c2.1,6.25,5.3,12.07,9.44,17.2h0c8.71,10.79,19.9,19.32,32.65,24.79,1.8.77,3.48,1.46,4.9,2,8.25,3.14,18.6,1.22,18.6,1.22,0,0-39.15,34.49-71.54,33.6-32.38-.89-62.43-7.63-62.43-7.63,0,0,11.48,10.82,17.33,11.85l5.85,1.03s-20.62,17.11-36.65-.06c-16.03-17.17-25.97-31.44-25.97-31.44,0,0,.95,3.51,1.63,14.49.68,10.93-17.34,18.77-17.34,18.77,0,0,7.03-25.53-4.49-43-7.78-11.8-22.12-29.26-30.61-39.36-7.08-8.42-13.36-17.5-18.52-27.22-4.9-9.23-9.49-20.03-9.55-28.17-.13-17.52,8.79-33.8,8.79-33.8ZM286.27,215.98c.81,9.57,17.77,12.01,29.55,11.02,11.77-.99,21.73-9.42,20.92-18.98-.81-9.57-11.28-7.29-23.06-6.3-11.77.99-28.22,4.7-27.41,14.26Z"/>
</svg>