<?xml version="1.0" encoding="UTF-8"?>
<svg id="Layer_1" data-name="Layer 1" xmlns="http://www.w3.org/2000/svg" viewBox="0 0 536.08 409.82">
  <defs>
    <style>
      .cls-1 {
        fill: #be1e2d;
        stroke: #231f20;
        stroke-miterlimit: 10;
        stroke-width: 2px;
      }
    </style>
  </defs>
  <path class="cls-1" d="M216.55,76.63s29.87,15.13,64.89,11.25c35.03-3.88,48.18-11.97,48.18-11.97,0,0,7.21-21.73.25-28.65-6.96-6.93-1.28-7.27-7.05-18.73-5.77-11.45-21.8-28.47-44.13-27.49s-37.53,3.92-46,13.13c-8.47,9.21-10.48,16.18-7.55,17.45,2.93,1.27,6.28,1.6,6.28,1.6,0,0-3.37-2.58-8.11,2.65s-6.35,12.37-4.67,13.09,4.6.87,4.6.87c0,0-2.93-1.27-8.31,4.24-5.37,5.51-4.64,19.93-4.64,19.93l6.25,2.63Z"/>
</svg>